<?xml version="1.0" standalone="no"?>
<!DOCTYPE svg PUBLIC "-//W3C//DTD SVG 20010904//EN"
 "http://www.w3.org/TR/2001/REC-SVG-20010904/DTD/svg10.dtd">
<svg version="1.0" xmlns="http://www.w3.org/2000/svg"
 width="512.000000pt" height="512.000000pt" viewBox="0 0 512.000000 512.000000"
 preserveAspectRatio="xMidYMid meet">
<metadata>
Created by potrace 1.14, written by Peter Selinger 2001-2017
</metadata>
<g transform="translate(0.000000,512.000000) scale(0.100000,-0.100000)"
fill="#000000" stroke="none">
<path d="M1492 4579 c-107 -20 -215 -92 -276 -183 -50 -76 -68 -128 -72 -217
-6 -125 31 -223 117 -314 166 -175 435 -179 605 -10 107 106 150 255 117 399
-50 217 -274 365 -491 325z"/>
<path d="M3448 4585 c-2 -1 -22 -5 -46 -9 -103 -14 -228 -102 -286 -200 -90
-154 -78 -342 31 -481 197 -250 581 -206 720 83 30 64 36 87 39 158 5 134 -33
233 -128 326 -52 51 -117 89 -185 107 -40 11 -138 22 -145 16z"/>
<path d="M1434 3182 c-38 -7 -85 -20 -104 -29 -19 -8 -51 -22 -70 -30 -114
-49 -269 -180 -365 -308 -70 -94 -178 -326 -199 -428 -7 -34 -34 -168 -41
-207 -10 -56 -14 -419 -4 -490 15 -122 17 -135 33 -210 67 -317 234 -595 461
-765 101 -76 289 -163 388 -180 18 -4 50 -10 72 -15 90 -20 281 -27 395 -16
130 14 298 73 395 139 119 81 213 210 265 360 l16 49 36 -59 c102 -163 240
-280 396 -334 109 -38 181 -48 322 -45 136 4 149 5 251 31 256 66 475 246 593
488 73 150 108 276 136 492 9 67 5 401 -5 455 -46 246 -100 408 -188 565 -166
295 -402 455 -684 464 -170 5 -278 -71 -318 -224 -48 -185 8 -322 175 -427 30
-19 86 -54 125 -79 154 -98 236 -218 270 -394 11 -57 5 -215 -9 -279 -40 -170
-138 -287 -286 -342 -59 -21 -201 -27 -270 -10 -189 44 -279 172 -295 418 -15
225 -65 336 -174 387 -48 22 -69 26 -151 26 -81 0 -101 -3 -135 -23 -73 -42
-135 -162 -150 -289 -3 -27 -8 -59 -10 -73 -3 -14 -7 -49 -10 -78 -8 -73 -41
-177 -76 -238 -55 -98 -156 -165 -276 -184 -233 -39 -456 46 -573 216 -32 46
-74 144 -84 195 -3 19 -8 45 -11 59 -7 30 -6 212 0 260 8 55 35 140 62 193 50
99 139 172 332 273 174 91 235 172 237 317 2 123 -32 214 -109 284 -52 48 -84
66 -146 83 -65 17 -138 18 -217 2z"/>
</g>
</svg>
